<svg class="main-svg" xmlns="http://www.w3.org/2000/svg" xmlns:xlink="http://www.w3.org/1999/xlink" width="700" height="500" style="" viewBox="0 0 700 500"><rect x="0" y="0" width="700" height="500" style="fill: rgb(255, 255, 255); fill-opacity: 1;"/><defs id="defs-3d0505"><g class="clips"/><g class="gradients"/><g class="patterns"/></defs><g class="bglayer"/><g class="layer-below"><g class="imagelayer"/><g class="shapelayer"/></g><g class="cartesianlayer"/><g class="polarlayer"/><g class="smithlayer"/><g class="ternarylayer"/><g class="geolayer"/><g class="funnelarealayer"/><g class="pielayer"/><g class="iciclelayer"/><g class="treemaplayer"/><g class="sunburstlayer"/><g class="glimages"/><defs id="topdefs-3d0505"><g class="clips"/></defs><g class="indicatorlayer"><g class="trace"><g class="numbers" transform="translate(350,378)"><text text-anchor="middle" class="number" x="0" y="0" style="font-family: 'Open Sans', verdana, arial, sans-serif; font-size: 80px; fill: rgb(42, 63, 95); fill-opacity: 1; white-space: pre;">2.25</text></g><g class="angular" transform="translate(350,395)"><g class="bg-arc"><path d="M-270,-3.3065463576978534e-14A270,270 0 0,1 270,0L202.5,0A202.5,202.5 0 0,0 -202.5,-2.4799097682733902e-14Z" style="stroke: rgb(68, 68, 68); stroke-opacity: 1; fill: rgb(255, 255, 255); fill-opacity: 1; stroke-width: 0;"/></g><g class="bg-arc"><path d="M-270,-3.3065463576978534e-14A270,270 0 0,1 -83.43458848123578,-256.7852593996915L-62.575941360926834,-192.5889445497686A202.5,202.5 0 0,0 -202.5,-2.4799097682733902e-14Z" style="stroke: rgb(68, 68, 68); stroke-opacity: 1; fill: rgb(255, 165, 0); fill-opacity: 1; stroke-width: 0;"/></g><g class="bg-arc"><path d="M-83.43458848123578,-256.7852593996915A270,270 0 0,1 158.70201811896774,-218.4345884812358L119.02651358922581,-163.82594136092686A202.5,202.5 0 0,0 -62.575941360926834,-192.5889445497686Z" style="stroke: rgb(68, 68, 68); stroke-opacity: 1; fill: rgb(255, 215, 0); fill-opacity: 1; stroke-width: 0;"/></g><g class="bg-arc"><path d="M158.70201811896774,-218.4345884812358A270,270 0 0,1 270,0L202.5,0A202.5,202.5 0 0,0 119.02651358922581,-163.82594136092686Z" style="stroke: rgb(68, 68, 68); stroke-opacity: 1; fill: rgb(144, 238, 144); fill-opacity: 1; stroke-width: 0;"/></g><g class="value-arc"><path d="M-253.125,-3.0998872103417375e-14A253.125,253.125 0 0,1 -39.597473963308424,-250.00861121314423L-34.31781076820064,-216.67412971805834A219.375,219.375 0 0,0 -219.375,-2.686568915629506e-14Z" style="stroke: rgb(68, 68, 68); stroke-opacity: 1; fill: rgb(0, 128, 0); fill-opacity: 1; stroke-width: 0;"/></g><g class="gauge-outline"><path d="M-270,-3.3065463576978534e-14A270,270 0 0,1 270,0L202.5,0A202.5,202.5 0 0,0 -202.5,-2.4799097682733902e-14Z" style="stroke: rgb(68, 68, 68); stroke-opacity: 1; fill: rgb(0, 0, 0); fill-opacity: 0; stroke-width: 1;"/></g></g><g class="angularaxis crisp"><path class="xangularaxistick ticks crisp" d="M0.5,0h5" transform="translate(80,394.99999999999994)rotate(-180)" style="stroke: rgb(68, 68, 68); stroke-opacity: 1; stroke-width: 1px;"/><path class="xangularaxistick ticks crisp" d="M0.5,0h5" transform="translate(131.56541151876422,236.29798188103223)rotate(-144)" style="stroke: rgb(68, 68, 68); stroke-opacity: 1; stroke-width: 1px;"/><path class="xangularaxistick ticks crisp" d="M0.5,0h5" transform="translate(266.5654115187642,138.21474060030852)rotate(-108)" style="stroke: rgb(68, 68, 68); stroke-opacity: 1; stroke-width: 1px;"/><path class="xangularaxistick ticks crisp" d="M0.5,0h5" transform="translate(433.4345884812358,138.21474060030857)rotate(-72)" style="stroke: rgb(68, 68, 68); stroke-opacity: 1; stroke-width: 1px;"/><path class="xangularaxistick ticks crisp" d="M0.5,0h5" transform="translate(568.4345884812358,236.29798188103226)rotate(-36)" style="stroke: rgb(68, 68, 68); stroke-opacity: 1; stroke-width: 1px;"/><path class="xangularaxistick ticks crisp" d="M0.5,0h5" transform="translate(620,395)rotate(0)" style="stroke: rgb(68, 68, 68); stroke-opacity: 1; stroke-width: 1px;"/><g class="xangularaxistick"><text text-anchor="end" x="-7.9" y="4.199999999999998" transform="translate(80,394.99999999999994)" style="font-family: 'Open Sans', verdana, arial, sans-serif; font-size: 12px; fill: rgb(42, 63, 95); fill-opacity: 1; white-space: pre; opacity: 1;">0</text></g><g class="xangularaxistick"><text text-anchor="end" x="-6.391234255562084" y="-2.656316722237696" transform="translate(131.56541151876422,236.29798188103223)" style="font-family: 'Open Sans', verdana, arial, sans-serif; font-size: 12px; fill: rgb(42, 63, 95); fill-opacity: 1; white-space: pre; opacity: 1;">1</text></g><g class="xangularaxistick"><text text-anchor="end" x="-2.441234255562084" y="-8.498010741465304" transform="translate(266.5654115187642,138.21474060030852)" style="font-family: 'Open Sans', verdana, arial, sans-serif; font-size: 12px; fill: rgb(42, 63, 95); fill-opacity: 1; white-space: pre; opacity: 1;">2</text></g><g class="xangularaxistick"><text text-anchor="start" x="2.441234255562085" y="-8.498010741465302" transform="translate(433.4345884812358,138.21474060030857)" style="font-family: 'Open Sans', verdana, arial, sans-serif; font-size: 12px; fill: rgb(42, 63, 95); fill-opacity: 1; white-space: pre; opacity: 1;">3</text></g><g class="xangularaxistick"><text text-anchor="start" x="6.391234255562085" y="-2.656316722237695" transform="translate(568.4345884812358,236.29798188103226)" style="font-family: 'Open Sans', verdana, arial, sans-serif; font-size: 12px; fill: rgb(42, 63, 95); fill-opacity: 1; white-space: pre; opacity: 1;">4</text></g><g class="xangularaxistick"><text text-anchor="start" x="7.9" y="4.199999999999999" transform="translate(620,395)" style="font-family: 'Open Sans', verdana, arial, sans-serif; font-size: 12px; fill: rgb(42, 63, 95); fill-opacity: 1; white-space: pre; opacity: 1;">5</text></g></g><text class="title" text-anchor="middle" x="0" y="0" style="font-family: 'Open Sans', verdana, arial, sans-serif; font-size: 20px; fill: rgb(42, 63, 95); fill-opacity: 1; white-space: pre;" transform="translate(350,108.71484375)">Terminal Seating Rating</text></g></g><g class="layer-above"><g class="imagelayer"/><g class="shapelayer"/></g><g class="infolayer"><g class="g-gtitle"/></g></svg>